<svg fill="none" xmlns="http://www.w3.org/2000/svg" viewBox="0 0 240 60"><path fill-rule="evenodd" clip-rule="evenodd" d="M28.5064 31.4887c4.8745.7637 5.5334 3.6905 5.9275 6.4146l.0657.4645.0447.3161.2373 1.6031c.4644 3.0609 1.4332 9.4145 1.4332 12.73 0 .8285-.0718 1.4645-.2031 1.8139-.2187.5386-.856 1.0554-1.736 1.4862-2.1291.5318-4.3547.8194-6.6471.8194-.2427 0-.4815-.0119-.7212-.0192-.9265-.267-1.6228-.7128-1.9915-1.322-1.1132-1.8389-1.1802-5.9358-1.2025-10.7235l-.0026-.5553-.009-1.435c-.0363-5.0683-.0674-9.4383 1.7472-11.0065.7028-.6032 1.7015-.8029 3.0574-.5863ZM17.8786 42.5234c1.0564-.0603 1.7357 5.2122 1.8722 9.2104.0957 2.7835-.1923 3.9285-.6522 4.3396-.5207-.1764-1.0324-.3673-1.5366-.5745-.3363-.6203-.5934-1.5959-.7567-2.8737-.4986-4.0157-.0655-10.031 1.0733-10.1018Zm26.4826 7.8792c-.0659.3661-.1588.6491-.2734.8878-.9031.7354-1.8524 1.4106-2.8458 2.0181-.3164.0541-.5974.0164-.7348-.2192-1.3166-2.3475-1.8107-9.7119-.5366-10.3529 1.6611-.8142 4.6369 6.393 4.3906 7.6662ZM27.2354 1.86377c14.8318 0 26.8933 11.91923 27.2259 26.75083l.0068.5126v.237c-.0272 6.6996-2.4569 12.829-6.4596 17.5731-.1452-.0739-.41-.3159-.8899-1.0443-.4965-.7322-4.7783-7.4192-4.7783-15.0834 0-1.5041 2.1365-3.8537 4.027-5.9161 1.4133-1.552 2.752-3.0158 3.245-4.1664.6279-1.4845.1886-2.5212-.5063-2.8725-.6289-.3123-1.5731-.0845-2.2357 1.1097-1.0873 1.9328-1.4357 2.294-3.0218 3.5872-1.5607 1.2925-4.0419 2.5937-4.0419.9094 0-.9094 1.382-2.969 2.0647-4.4127.6972-1.4597-.0543-2.5165-1.4939-2.5165-2.8271 0-4.7037 3.6545-4.7037 4.9206 0 1.265.6048 1.4452.6048 2.9184 0 1.4842-3.1018 3.4094-6.0237 3.4094-2.8131 0-4.4444-.5778-5.1203-2.2055l-.0863-.2286-.1954-.5865c-.6931-2.0557-1.1903-3.5465-2.0559-5.1045-.4595-.8239-1.1686-1.3951-1.7819-1.8976-.8016-.6318-1.2174-1.2135-1.3042-1.6474-.08-.4304-.1231-1.2415 1.2472-3.1114 1.3673-1.8591 1.5589-3.26365.8747-3.98836-.248-.25781-.6708-.42299-1.2138-.42299-.9603 0-2.2948.51637-3.67 1.93475-2.1378 2.2229-.9242 4.3334-.9242 5.2599 0 .9259-.3916 1.4496-1.6746 2.7093-1.2923 1.2652-1.7383 2.3499-1.8861 6.7096-.0566 2.2463-.4465 3.5393-.7964 4.6859-.3024 1.0049-.5805 1.9497-.5955 3.3148-.024 1.5128.2241 2.4876.5137 3.6124.2843 1.0397.5863 2.231.7797 4.2237.3077 3.0848.2008 5.6905-.3587 8.3538l-.1493.6673-.0349.1917c-.1146.4681-.2508 1.0365-.4348 1.2495C4.49491 46.5317 0 38.418 0 29.2464 0 14.1247 12.1932 1.86377 27.2354 1.86377Z" fill="#F14635"/><path d="M158.483 20.813c2.694 0 4.789.9683 6.285 2.9049 1.495 1.9366 2.243 4.5987 2.243 7.9861v.3152c0 3.3086-.765 5.951-2.294 7.927s-3.594 2.964-6.194 2.964c-2.007 0-3.658-.7157-4.951-2.1467v10.7523h-6.81V21.207h6.365l.203 1.9694c1.306-1.5756 3.024-2.3634 5.153-2.3634Zm-47.49 0c2.789 0 4.992.6631 6.608 1.9891 1.617 1.3262 2.446 3.1447 2.486 5.4554v9.4337c.027 1.9563.337 3.453.93 4.4902v.3349h-6.811c-.242-.4333-.458-1.07-.646-1.9103-1.253 1.536-3.005 2.3042-5.255 2.3042-2.061 0-3.813-.6074-5.254-1.8218-1.442-1.2144-2.163-2.7408-2.163-4.579 0-2.3107.876-4.057 2.628-5.2386 1.751-1.1817 4.297-1.7726 7.639-1.7726h2.101v-1.1225c0-1.9563-.869-2.9345-2.607-2.9345-1.616 0-2.425.7747-2.425 2.3239h-6.81c0-2.0613.899-3.7352 2.698-5.0221 1.798-1.2866 4.092-1.93 6.881-1.93Zm22.169 0c2.883 0 5.2.6368 6.951 1.9103 1.752 1.2737 2.628 2.9476 2.628 5.0221h-6.831c0-1.7067-.923-2.5602-2.769-2.5602-.714 0-1.313.1937-1.798.5809-.485.3874-.728.8699-.728 1.4476 0 .5909.297 1.0701.889 1.4376.593.3678 1.54.6697 2.84.906 1.3.2365 2.442.5187 3.425.8469 3.288 1.1028 4.931 3.0788 4.931 5.928 0 1.9432-.886 3.5253-2.657 4.7464-1.772 1.221-4.066 1.8316-6.881 1.8316-1.873 0-3.544-.3282-5.012-.9848-1.469-.6565-2.614-1.5493-3.436-2.6784-.822-1.1292-1.233-2.3174-1.233-3.5646h6.366c.027.9845.364 1.7034 1.011 2.1565.646.4529 1.475.6793 2.485.6793.93 0 1.627-.1838 2.092-.5513.465-.3678.697-.8469.697-1.4378 0-.5645-.303-1.0175-.909-1.3589-.606-.3413-1.758-.6959-3.456-1.0634-1.697-.3676-3.099-.8502-4.203-1.4477-1.105-.5973-1.947-1.3227-2.527-2.1762-.579-.8534-.868-1.8316-.868-2.9344 0-1.9563.828-3.5679 2.485-4.835 1.657-1.267 3.827-1.9005 6.508-1.9005Zm-51.1683-8.5851V26.485l9.639-14.2571h8.7703L89.6327 26.5244l9.943 15.9919h-8.407L84.9038 31.842l-2.9101 3.1116v7.5627h-7.0934V12.2279h7.0934Zm96.0303 8.9791v21.3093h-6.831V21.207h6.831Zm60.058 0v3.5842l-9.74 12.6045h9.963v5.1206h-18.572v-3.7025l9.7-12.4863h-11.428l4.552-5.1205h15.525Zm-50.926 14.4355c1.864 0 3.372 1.4766 3.372 3.2984 0 1.8216-1.508 3.2984-3.372 3.2984-1.862 0-3.372-1.4768-3.372-3.2984 0-1.8218 1.51-3.2984 3.372-3.2984Zm15.816-23.4154V28.142l.688-.8777 5.147-6.1632h8.185l-7.678 8.6792L217.5 42.204h-7.822l-4.781-7.8599-1.925 1.8528v6.0071h-6.829V12.2271h6.829Zm-89.716 20.8162h-1.98c-2.371 0-3.557 1.0372-3.557 3.1117 0 .604.209 1.093.627 1.4673.417.3741.949.5612 1.596.5612.849 0 1.553-.1772 2.112-.5317.559-.3546.96-.755 1.202-1.2015v-3.407Zm43.549-7.1096c-1.616 0-2.694.5644-3.233 1.6935v8.3899c.593 1.1817 1.684 1.7726 3.274 1.7726 2.169 0 3.287-1.8251 3.354-5.4752v-.709c0-3.7812-1.131-5.6718-3.395-5.6718Zm17.896-13.7066c1.862 0 3.372 1.547 3.372 3.4554s-1.51 3.4554-3.372 3.4554c-1.862 0-3.372-1.547-3.372-3.4554s1.51-3.4554 3.372-3.4554Z" fill="#000"/></svg>
