<svg fill="none" xmlns="http://www.w3.org/2000/svg" viewBox="0 0 240 60"><path d="M33.6199 43.0034c5.8839-.7401 10.6371-5.4555 11.3878-11.2974.2622-1.9939.059-4.0209-.5937-5.9246-.6527-1.9037-1.7375-3.6332-3.1707-5.0551-1.4332-1.4218-3.1765-2.498-5.0954-3.1455-1.919-.6475-3.9622-.849-5.972-.589-5.8887.7448-10.6418 5.4602-11.3879 11.2975-.2621 1.9939-.059 4.0209.5937 5.9246.6527 1.9037 1.7375 3.6332 3.1707 5.055 1.4332 1.4219 3.1766 2.498 5.0955 3.1456 1.9189.6475 3.9621.849 5.972.5889Zm.8023-37.46268c5.6649.59162 10.9533 3.09458 14.9811 7.09038 4.0278 3.9958 6.5508 9.2423 7.1471 14.8622C58.1035 43.0407 45.0406 56 29.3641 54.4592c-5.664-.5926-10.9513-3.096-14.9782-7.0918-4.0268-3.9957-6.54912-9.2416-7.14527-14.8608C5.68753 16.9592 18.7505 3.99995 34.4222 5.54072Zm35.4258.97288h36.275c1.379 0 2.158 1.56405 1.328 2.6533L82.3526 42.0166h19.6644c3.585 0 6.405 3.2352 5.664 6.9219-.545 2.7045-3.102 4.5478-5.879 4.5478H62.4062c-1.3654 0-2.1396-1.5501-1.3185-2.6254l25.1171-32.8776h-16.141c-2.7777 0-5.335-1.848-5.8792-4.5479-.7461-3.68664 2.0786-6.9218 5.6634-6.9218Zm157.426.13034c3.745-.78203 7.039 2.02954 7.039 5.60446v39.5808c0 1.3825-1.61 2.1505-2.698 1.294l-31.292-24.6291v19.2667c0 3.5749-3.294 6.3865-7.039 5.6045-2.684-.5586-4.523-3.0397-4.523-5.7582V8.16609c0-1.38251 1.61-2.15057 2.698-1.29406l31.297 24.62917V12.4021c0-2.71851 1.844-5.19492 4.523-5.75816h-.005Zm-81.479-1.2289c19.158 0 34.689 11.00416 34.689 24.57796 0 13.5737-15.531 24.5779-34.689 24.5779s-34.689-11.0042-34.689-24.5779c0-13.5738 15.531-24.57796 34.689-24.57796Zm0 11.46966c-13.236 0-23.127 6.9219-23.127 13.1083 0 6.1863 9.891 13.1082 23.127 13.1082 13.237 0 23.128-6.9172 23.128-13.1082 0-6.1911-9.891-13.1083-23.128-13.1083Z" fill="#005BFF"/></svg>
