<svg fill="none" xmlns="http://www.w3.org/2000/svg" viewBox="0 0 240 60"><path d="M22.3792 41.7463 16 18.2296h4.1846l4.9013 18.0621 5.253-18.0637 3.9007.0016 5.2714 18.158 4.9234-18.1536 4.1844-.006-6.3819 23.5141-4.8503-.0049-5.0957-17.562-5.1005 17.5665-4.8112.0046ZM51.5048 18.2417h3.9833V41.731h-3.9833V18.2417ZM64.0043 38.0464h9.6973v3.6846H60.1034V18.2417h3.9009v19.8047ZM85.9541 18.2688c3.269 0 5.9887 1.1379 8.1315 3.3866 2.1702 2.2486 3.2691 5.0392 3.2691 8.3445 0 3.2782-1.0989 6.0687-3.2691 8.3445-2.1428 2.2487-4.8625 3.3866-8.1315 3.3866h-9.3678V18.2417h9.3678v.0271Zm0 19.8047c2.2526 0 4.0932-.7586 5.4667-2.2758 1.4285-1.5171 2.1428-3.4678 2.1428-5.7707 0-2.357-.7143-4.2535-2.1428-5.7707-1.401-1.5173-3.2416-2.2758-5.4667-2.2758h-5.4393v16.093h5.4393ZM118.37 35.0208c0 1.9245-.686 3.5238-2.087 4.7978-1.402 1.2741-3.05 1.9246-5.083 1.9246h-10.192V18.2417h9.451c1.95 0 3.598.6506 4.944 1.8704 1.374 1.2468 2.034 2.792 2.034 4.6352 0 2.0601-.825 3.6323-2.418 4.7979 2.087 1.0843 3.351 3.0359 3.351 5.4756ZM104.937 21.874v6.1803h5.549c1.731 0 3.049-1.3553 3.049-3.0901 0-1.7349-1.318-3.0902-3.049-3.0902h-5.549Zm6.29 16.2369c1.814 0 3.243-1.4367 3.243-3.2799 0-1.8433-1.429-3.2799-3.243-3.2799h-6.29v6.5869h6.29v-.0271ZM125.979 38.0567h10.55v3.6865h-14.45V18.2417h14.285v3.6865h-10.385v6.099h9.533v3.6594h-9.533v6.3701ZM153.616 41.7432l-5.055-8.5657h-4.615v8.5657h-3.901V18.2417h9.532c2.144 0 3.957.7318 5.413 2.2227 1.483 1.4367 2.253 3.2258 2.253 5.3401 0 2.9817-1.896 5.7194-4.726 6.8037l5.412 9.135h-4.313Zm-9.67-19.8693v7.861h5.604c2.088 0 3.736-1.7348 3.736-3.9304 0-2.1686-1.675-3.9306-3.736-3.9306h-5.604ZM174.467 41.7432l-5.028-8.5702h-4.615v8.5702h-3.901V18.2295h9.533c2.143 0 3.956.7323 5.412 2.2239 1.483 1.4374 2.253 3.2273 2.253 5.3428 0 2.9833-1.896 5.7225-4.726 6.8073l5.412 9.1397h-4.34Zm-9.643-19.8795v7.865h5.605c2.087 0 3.735-1.7358 3.735-3.9325 0-2.1696-1.675-3.9325-3.735-3.9325h-5.605ZM181.664 18.2322h3.902v23.511h-3.902v-23.511ZM194.081 38.0567h10.549v3.6864h-14.45V18.2417h14.285v3.6865h-10.384v6.099h9.532v3.6594h-9.532v6.3701ZM207.35 36.3939l3.379-1.9507c.961 2.6551 2.912 3.9555 5.906 3.9555 2.967 0 4.423-1.2462 4.423-3.0885 0-.9753-.412-1.6797-1.181-2.1674-.77-.5148-2.198-1.0838-4.23-1.6798-2.281-.6773-3.407-1.1108-5.001-2.1403-1.538-1.0837-2.307-2.628-2.307-4.7412 0-2.0861.741-3.7116 2.252-4.9308 1.484-1.2464 3.297-1.8424 5.413-1.8424 3.818 0 6.757 1.9507 8.296 5.1747l-3.297 1.8694c-.989-2.1674-2.665-3.2782-4.999-3.2782-2.281 0-3.737 1.1379-3.737 2.926 0 1.734 1.154 2.5467 4.808 3.6575.906.2981 1.565.5148 1.977.6773.44.1355 1.017.3794 1.759.6774.769.298 1.374.6502 1.731.9482 1.263.9754 2.609 2.5738 2.444 4.8225 0 2.1132-.769 3.82-2.334 5.0663-1.539 1.2463-3.572 1.8423-6.099 1.8423-4.615-.0271-7.967-2.1945-9.203-5.7978Z" fill="#B81FA4"/></svg>
