<svg fill="none" xmlns="http://www.w3.org/2000/svg" viewBox="0 0 60 60"><mask id="a" style="mask-type:luminance" maskUnits="userSpaceOnUse" x="38" y="8" width="22" height="15"><path d="M38.6944 8.9021h21.3028v13.7741H38.6944V8.9021Z" fill="#fff"/></mask><g mask="url(#a)"><path fill-rule="evenodd" clip-rule="evenodd" d="m52.1022 8.9021 3.9373 6.8101 3.9355 6.8101H46.6543l-3.9364-6.8101-3.9373-6.8101h13.3216Z" fill="#fff"/></g><mask id="b" style="mask-type:luminance" maskUnits="userSpaceOnUse" x="0" y="8" width="60" height="29"><path d="M0 8.9021h59.9972v27.2404H0V8.9021Z" fill="#fff"/></mask><g mask="url(#b)"><path fill-rule="evenodd" clip-rule="evenodd" d="M29.0152 19.1692H6.72756l2.46105 3.7648c1.23609 1.8908 3.17969 2.9423 5.44049 2.9423h14.387l1.9984 3.4561.0593.102H13.4394l2.4592 3.7657c1.236 1.8908 3.1797 2.9424 5.4404 2.9424h13.6128l3.9354-6.8101 3.9364-6.8101-3.9364-6.8101-3.9354-6.8101H.021328l2.460122 3.7648c1.23609 1.8908 3.17879 2.9424 5.44047 2.9424H31.0738l-.0593.1029-1.9984 3.457h-.0009Zm23.0879 16.9733 3.9364-6.8101 3.9355-6.8101H46.6543l-3.9364 6.8101-3.9354 6.8101h13.3206Z" fill="#EA6001"/></g><path d="M18.2512 49.3235c-.3023 0-.5934-.0222-.8753-.0667-.2801-.0427-.5193-.1261-.7196-.2522v-1.4207c.2225.0696.4284.1141.6194.1336.1901.0176.3561.0259.497.0259.1484 0 .2643-.0306.3487-.0927.0862-.0612.1502-.141.1929-.2374.0445-.0964.0714-.2049.0816-.3264.0093-.1206.0148-.2411.0148-.3598v-4.5957h2.233v4.911c0 .3987-.0705.7409-.2115 1.0274-.1391.2875-.3208.5249-.5452.7122-.2226.1855-.4785.3218-.7678.408-.2875.089-.5768.1335-.868.1335ZM26.8881 48.9637c-.3116.1039-.6491.1892-1.0126.256-.3617.0686-.7372.1038-1.1276.1038-.4303 0-.8402-.0556-1.2278-.1669-.3885-.1131-.7307-.2902-1.0274-.5304-.2949-.2393-.5295-.5425-.7048-.9088-.1734-.3681-.2596-.8058-.2596-1.313 0-.2893.0445-.5573.1335-.8049.089-.2495.2096-.4757.3635-.6788.1558-.2021.3376-.382.5453-.5378.2077-.1558.4302-.2866.6676-.3932.2374-.1057.4822-.1864.7344-.2411.2523-.0538.5008-.0816.7456-.0816.3802 0 .7168.0426 1.0089.1261.2939.0844.5378.1984.7307.3413.1947.1437.3422.3106.4414.5007.0983.1882.1484.3885.1484.6009 0 .2596-.0445.4813-.1336.6639-.0871.1836-.204.3366-.3523.46-.1465.1242-.3172.2216-.5119.293-.1957.0723-.4006.128-.6157.1669-.2152.0371-.4359.0612-.6603.0705-.2253.0102-.4395.0148-.6417.0148h-.2003c-.0649-.0018-.1289-.0037-.1928-.0037.0269.1883.0788.3478.1558.4785.0788.1289.1761.2337.293.3153.1187.0816.2541.14.408.1743.1558.0353.3227.0519.5007.0519.1308 0 .2717-.0092.4229-.0296.153-.0195.306-.0464.4599-.0816.1558-.0343.3097-.0742.4637-.1187.1558-.0445.3041-.0909.4451-.141v1.4132Zm-3.1936-2.8301c.0788-.0018.1799-.0074.3041-.0148.1261-.0074.2578-.0186.3969-.0334.1409-.0167.28-.0408.4191-.0705.141-.0297.2671-.0677.3784-.115.1131-.0463.2049-.1048.2745-.1743.0714-.0686.1075-.1539.1075-.2559 0-.1679-.0686-.3023-.204-.4043-.1335-.1011-.3208-.1521-.5601-.1521-.1094 0-.2262.0167-.3524.0482-.1261.0297-.2448.0909-.356.1818-.1095.089-.2022.2142-.2782.3746-.077.1586-.1206.3635-.1298.6157ZM30.6774 49.3235c-.3097 0-.6046-.0389-.8865-.115-.2819-.0741-.5304-.1984-.7455-.3746-.2151-.178-.3876-.4136-.5156-.7084-.1261-.294-.1892-.6612-.1892-1.1017v-1.9881h-.9903v-.3227l2.3479-2.5519h.7975v1.6394h1.5949c-.0426.2003-.0797.4025-.1112.6046-.0297.2031-.0464.4136-.0483.6306h-1.4354v1.9696c0 .1187.0083.2355.0259.3487.0167.1112.0538.2095.1113.293.0566.0844.1382.1521.2448.204.1057.0519.2467.0779.4229.0779.1131 0 .2383-.0112.3746-.0334.1354-.0223.2903-.0631.4637-.1224l.1187 1.2908c-.2078.077-.4479.1382-.7196.1855-.2699.0491-.5564.0741-.8606.0741Z" fill="#fff"/><path d="M36.6683 51.3339v-2.8412c-.0723.1261-.1697.2411-.293.3449-.1215.102-.2624.1892-.4228.2634-.1586.0723-.332.1261-.5193.1632-.1855.0389-.3747.0593-.5675.0593-.2847 0-.5666-.0482-.8457-.1446-.2801-.0983-.5305-.2606-.753-.4859-.2207-.2272-.3997-.5267-.5378-.8977-.1364-.3727-.204-.8345-.204-1.3835 0-.4766.0612-.8884.1854-1.2352.1261-.3486.293-.6342.5008-.8568.2095-.2225.4497-.3867.7195-.4933.2717-.1057.5564-.1595.8532-.1595.1873 0 .3746.0213.56.063.1874.0399.3645.0983.5305.1744.165.0742.3162.166.4525.2745.1354.1066.2494.2262.3412.3598v-.7382h2.1514v7.5334h-2.1514Zm-2.0697-4.8331c0 .2745.0297.5035.089.6862.0594.1808.1382.3264.2374.4377.0983.1113.2096.192.3338.2411.1234.0473.2504.0705.3821.0705.1279 0 .2541-.0232.3783-.0705.1233-.0491.2337-.1298.3301-.2411.0965-.1113.1725-.2578.23-.4414.0594-.1854.089-.4136.089-.6862 0-.2689-.0296-.4952-.089-.6788-.0575-.1854-.1335-.3338-.23-.4451-.0964-.1131-.2068-.1938-.3301-.2411-.1215-.0491-.2466-.0742-.3746-.0742-.1289 0-.2559.0251-.3821.0742-.1242.0473-.2364.128-.3375.2411-.0992.1113-.178.2597-.2374.4451-.0593.1836-.089.4108-.089.6825ZM42.7381 49.3235c-.3932 0-.7437-.0371-1.0497-.1113-.3042-.0714-.5713-.1715-.8012-.3004-.2281-.1307-.4229-.2856-.5861-.4637-.1613-.178-.2912-.3709-.3895-.5786-.0992-.2096-.1706-.4312-.2151-.6639-.0445-.2319-.0668-.4683-.0668-.7085 0-.2346.0223-.4673.0668-.6973.0445-.2318.1159-.4535.2151-.664.0983-.2123.2272-.408.3858-.586.1604-.1781.3561-.332.5861-.4637.2318-.1307.5007-.2336.8049-.3078.306-.0742.6565-.1113 1.0497-.1113.3931 0 .7418.0371 1.046.1113.306.0742.5749.1771.8048.3078.2319.1317.4275.2856.5861.4637.1604.178.2902.3737.3895.586.0983.2105.1706.4322.2151.664.0464.23.0705.4627.0705.6973 0 .2402-.0241.4766-.0705.7085-.0445.2327-.1168.4543-.2151.6639-.0993.2077-.23.4006-.3932.5786-.1614.1781-.3561.333-.5861.4637-.2281.1289-.4951.229-.8011.3004-.3042.0742-.6529.1113-1.046.1113Zm-.957-2.8264c0 .1808.0157.3561.0482.5267.0343.1706.089.3246.1632.46.0742.1335.1716.2411.293.3227.1206.0816.2717.1224.4526.1224.1799 0 .331-.0408.4525-.1224.1205-.0816.2188-.1892.293-.3227.0742-.1354.127-.2894.1595-.46.0343-.1706.0519-.3459.0519-.5267 0-.1799-.0176-.3561-.0519-.5267-.0325-.1706-.0853-.3227-.1595-.4562-.0742-.1354-.1725-.2448-.293-.3264-.1215-.0835-.2726-.1261-.4525-.1261-.1809 0-.332.0426-.4526.1261-.1214.0816-.2188.191-.293.3264-.0742.1335-.1289.2856-.1632.4562-.0325.1706-.0482.3468-.0482.5267ZM46.6578 43.8005h2.0475c-.0075.0872-.013.1836-.0149.2893-.0028.1039-.0037.2133-.0037.3265v.6787c.064-.1604.1493-.3264.2559-.497.1058-.1725.2309-.3273.3747-.4636.1456-.1354.3097-.2467.4933-.3339.1855-.089.3932-.1335.6231-.1335.0446 0 .0909.0028.141.0074.0519.0056.102.013.1521.0223.0519.0102.1001.0222.1446.0371.0445.0148.0816.0324.1113.0519l-.1743 2.0549c-.1484-.0566-.307-.0983-.4748-.1261-.166-.0297-.3107-.0445-.434-.0445-.1688 0-.3171.0213-.4451.063-.1289.0427-.2374.0965-.3264.1632-.089.0649-.1595.1373-.2114.2189-.052.0797-.0881.1576-.1076.2336v2.8302h-2.1513v-5.3784Z" fill="#EA6001"/></svg>
