<svg width="160" height="161" viewBox="0 0 160 161" fill="none" xmlns="http://www.w3.org/2000/svg">
<mask id="mask0_66_5562" style="mask-type:luminance" maskUnits="userSpaceOnUse" x="103" y="24" width="57" height="37">
<path d="M103.185 24.2388H159.993V60.9697H103.185V24.2388Z" fill="white"/>
</mask>
<g mask="url(#mask0_66_5562)">
<path fill-rule="evenodd" clip-rule="evenodd" d="M138.939 24.2388L149.439 42.399L159.933 60.5592H124.412L113.915 42.399L103.415 24.2388H138.939Z" fill="#0A2635"/>
</g>
<mask id="mask1_66_5562" style="mask-type:luminance" maskUnits="userSpaceOnUse" x="0" y="24" width="160" height="73">
<path d="M0 24.2388H159.993V96.8797H0V24.2388Z" fill="white"/>
</mask>
<g mask="url(#mask1_66_5562)">
<path fill-rule="evenodd" clip-rule="evenodd" d="M77.3739 51.6176H17.9402L24.503 61.6572C27.7992 66.6992 32.9822 69.5034 39.0109 69.5034H77.3764L82.7053 78.7195L82.8635 78.9915H35.8383L42.3962 89.0335C45.6924 94.0756 50.8754 96.8797 56.9041 96.8797H93.2048L103.699 78.7195L114.196 60.5592L103.699 42.399L93.2048 24.2388H0.0568848L6.61722 34.2783C9.91346 39.3204 15.094 42.1245 21.1251 42.1245H82.8635L82.7053 42.399L77.3764 51.6176H77.3739ZM138.942 96.8797L149.439 78.7195L159.933 60.5592H124.411L113.914 78.7195L103.42 96.8797H138.942Z" fill="#EA6001"/>
</g>
<path d="M48.67 132.029C47.8638 132.029 47.0874 131.97 46.3356 131.851C45.5889 131.738 44.9509 131.515 44.4167 131.179V127.39C45.0102 127.576 45.5592 127.695 46.0686 127.746C46.5755 127.793 47.0181 127.816 47.394 127.816C47.7896 127.816 48.0987 127.734 48.3238 127.568C48.5537 127.405 48.7244 127.193 48.8381 126.935C48.9568 126.678 49.0285 126.389 49.0557 126.065C49.0804 125.744 49.0953 125.422 49.0953 125.106V112.85H55.0498V125.946C55.0498 127.01 54.8619 127.922 54.486 128.686C54.1151 129.453 53.6304 130.086 53.032 130.585C52.4385 131.08 51.756 131.443 50.9845 131.673C50.2179 131.911 49.4464 132.029 48.67 132.029Z" fill="#0A2635"/>
<path d="M71.7015 131.07C70.8706 131.347 69.9705 131.574 69.0012 131.752C68.0368 131.935 67.0353 132.029 65.9943 132.029C64.8469 132.029 63.7539 131.881 62.7203 131.584C61.6842 131.283 60.7717 130.81 59.9804 130.17C59.1941 129.532 58.5684 128.723 58.1011 127.747C57.6387 126.765 57.4087 125.598 57.4087 124.245C57.4087 123.474 57.5274 122.759 57.7648 122.099C58.0022 121.433 58.3236 120.83 58.7341 120.289C59.1495 119.749 59.6342 119.27 60.1881 118.854C60.742 118.439 61.3355 118.09 61.9685 117.806C62.6016 117.524 63.2544 117.309 63.927 117.163C64.5996 117.019 65.2623 116.945 65.9151 116.945C66.929 116.945 67.8266 117.059 68.6055 117.282C69.3894 117.507 70.0398 117.811 70.5541 118.192C71.0734 118.575 71.4666 119.02 71.7311 119.527C71.9933 120.029 72.1268 120.563 72.1268 121.129C72.1268 121.822 72.0081 122.413 71.7707 122.9C71.5383 123.389 71.2267 123.797 70.831 124.126C70.4403 124.458 69.9853 124.717 69.4661 124.908C68.9443 125.101 68.3978 125.249 67.8241 125.353C67.2504 125.452 66.6619 125.516 66.0635 125.541C65.4626 125.568 64.8914 125.58 64.3523 125.58C64.1669 125.58 63.9888 125.58 63.8182 125.58C63.6451 125.575 63.4745 125.57 63.3038 125.57C63.3756 126.072 63.514 126.498 63.7193 126.846C63.9295 127.19 64.1891 127.47 64.5007 127.687C64.8172 127.905 65.1782 128.061 65.5887 128.152C66.0041 128.246 66.4492 128.291 66.924 128.291C67.2727 128.291 67.6486 128.266 68.0516 128.211C68.4596 128.159 68.8676 128.088 69.2781 127.994C69.6936 127.902 70.104 127.796 70.5145 127.677C70.93 127.559 71.3256 127.435 71.7015 127.301V131.07ZM63.1852 123.523C63.3953 123.518 63.6649 123.503 63.9962 123.483C64.3325 123.464 64.6837 123.434 65.0546 123.394C65.4305 123.35 65.8014 123.286 66.1723 123.206C66.5482 123.127 66.8845 123.026 67.1812 122.9C67.4829 122.776 67.7277 122.62 67.9131 122.435C68.1035 122.252 68.2 122.024 68.2 121.752C68.2 121.305 68.017 120.946 67.656 120.674C67.2999 120.405 66.8004 120.269 66.1624 120.269C65.8706 120.269 65.559 120.313 65.2227 120.397C64.8864 120.476 64.5699 120.64 64.2732 120.882C63.9814 121.119 63.7341 121.453 63.5313 121.881C63.3261 122.304 63.2099 122.85 63.1852 123.523Z" fill="#0A2635"/>
<path d="M81.8065 132.029C80.9806 132.029 80.1942 131.925 79.4425 131.723C78.6908 131.525 78.028 131.194 77.4544 130.724C76.8807 130.249 76.4207 129.621 76.0795 128.834C75.7432 128.051 75.575 127.071 75.575 125.897V120.595H72.9341V119.735L79.1952 112.929H81.3218V117.301H85.575C85.4613 117.835 85.3624 118.375 85.2783 118.914C85.1992 119.455 85.1547 120.016 85.1497 120.595H81.3218V125.847C81.3218 126.164 81.3441 126.475 81.3911 126.777C81.4356 127.074 81.5345 127.336 81.6878 127.559C81.8386 127.784 82.0562 127.964 82.3406 128.103C82.6225 128.241 82.9984 128.31 83.4682 128.31C83.7699 128.31 84.1037 128.281 84.4672 128.221C84.8282 128.162 85.2412 128.053 85.7036 127.895L86.0201 131.337C85.4662 131.542 84.8258 131.705 84.1012 131.832C83.3817 131.963 82.6176 132.029 81.8065 132.029Z" fill="#0A2635"/>
<path d="M97.7821 137.39V129.814C97.5892 130.15 97.3296 130.457 97.0007 130.734C96.6768 131.006 96.3009 131.238 95.8731 131.436C95.4503 131.629 94.9878 131.772 94.4883 131.871C93.9938 131.975 93.4893 132.029 92.975 132.029C92.2158 132.029 91.4641 131.901 90.7198 131.644C89.973 131.382 89.3054 130.949 88.7119 130.348C88.1234 129.742 87.6461 128.943 87.2777 127.954C86.9142 126.96 86.7336 125.729 86.7336 124.265C86.7336 122.994 86.8968 121.896 87.2282 120.971C87.5645 120.041 88.0096 119.28 88.5635 118.686C89.1224 118.093 89.7628 117.655 90.4824 117.371C91.2069 117.089 91.9661 116.945 92.7574 116.945C93.2569 116.945 93.7564 117.002 94.251 117.113C94.7505 117.22 95.2228 117.376 95.6654 117.578C96.1056 117.776 96.5086 118.021 96.8721 118.31C97.2331 118.595 97.5373 118.914 97.7821 119.27V117.301H103.519V137.39H97.7821ZM92.2628 124.502C92.2628 125.234 92.342 125.845 92.5002 126.332C92.6585 126.814 92.8687 127.202 93.1332 127.499C93.3954 127.796 93.6921 128.011 94.0235 128.142C94.3523 128.268 94.6911 128.33 95.0422 128.33C95.3835 128.33 95.7198 128.268 96.0512 128.142C96.38 128.011 96.6743 127.796 96.9315 127.499C97.1886 127.202 97.3914 126.812 97.5447 126.322C97.703 125.828 97.7821 125.219 97.7821 124.492C97.7821 123.775 97.703 123.172 97.5447 122.682C97.3914 122.188 97.1886 121.792 96.9315 121.495C96.6743 121.194 96.38 120.978 96.0512 120.852C95.7272 120.721 95.3934 120.655 95.0521 120.655C94.7084 120.655 94.3696 120.721 94.0333 120.852C93.702 120.978 93.4028 121.194 93.1332 121.495C92.8687 121.792 92.6585 122.188 92.5002 122.682C92.342 123.172 92.2628 123.778 92.2628 124.502Z" fill="#EA6001"/>
<path d="M113.968 132.029C112.92 132.029 111.985 131.93 111.169 131.733C110.358 131.542 109.646 131.275 109.033 130.931C108.424 130.583 107.905 130.17 107.47 129.695C107.039 129.22 106.693 128.706 106.431 128.152C106.167 127.593 105.976 127.002 105.857 126.382C105.739 125.763 105.679 125.133 105.679 124.492C105.679 123.867 105.739 123.246 105.857 122.633C105.976 122.015 106.167 121.424 106.431 120.862C106.693 120.296 107.037 119.774 107.46 119.299C107.888 118.825 108.409 118.414 109.023 118.063C109.641 117.714 110.358 117.44 111.169 117.242C111.985 117.044 112.92 116.945 113.968 116.945C115.017 116.945 115.947 117.044 116.758 117.242C117.574 117.44 118.291 117.714 118.904 118.063C119.522 118.414 120.044 118.825 120.467 119.299C120.895 119.774 121.241 120.296 121.505 120.862C121.767 121.424 121.96 122.015 122.079 122.633C122.203 123.246 122.267 123.867 122.267 124.492C122.267 125.133 122.203 125.763 122.079 126.382C121.96 127.002 121.767 127.593 121.505 128.152C121.241 128.706 120.892 129.22 120.457 129.695C120.027 130.17 119.507 130.583 118.894 130.931C118.286 131.275 117.574 131.542 116.758 131.733C115.947 131.93 115.017 132.029 113.968 132.029ZM111.416 124.492C111.416 124.974 111.458 125.442 111.545 125.897C111.636 126.352 111.782 126.762 111.98 127.123C112.178 127.479 112.438 127.766 112.762 127.984C113.083 128.201 113.486 128.31 113.968 128.31C114.448 128.31 114.851 128.201 115.175 127.984C115.496 127.766 115.759 127.479 115.956 127.123C116.154 126.762 116.295 126.352 116.382 125.897C116.473 125.442 116.52 124.974 116.52 124.492C116.52 124.013 116.473 123.543 116.382 123.088C116.295 122.633 116.154 122.227 115.956 121.871C115.759 121.51 115.496 121.218 115.175 121.001C114.851 120.778 114.448 120.664 113.968 120.664C113.486 120.664 113.083 120.778 112.762 121.001C112.438 121.218 112.178 121.51 111.98 121.871C111.782 122.227 111.636 122.633 111.545 123.088C111.458 123.543 111.416 124.013 111.416 124.492Z" fill="#EA6001"/>
<path d="M124.421 117.301H129.881C129.861 117.534 129.846 117.791 129.841 118.073C129.834 118.35 129.831 118.642 129.831 118.943C129.831 119.247 129.831 119.554 129.831 119.863C129.831 120.175 129.831 120.472 129.831 120.753C130.002 120.326 130.229 119.883 130.514 119.428C130.796 118.968 131.129 118.555 131.513 118.192C131.901 117.831 132.339 117.534 132.828 117.301C133.323 117.064 133.877 116.945 134.49 116.945C134.609 116.945 134.732 116.953 134.866 116.965C135.004 116.98 135.138 117 135.271 117.024C135.41 117.052 135.538 117.084 135.657 117.123C135.776 117.163 135.875 117.21 135.954 117.262L135.489 122.742C135.093 122.591 134.67 122.479 134.223 122.405C133.78 122.326 133.394 122.287 133.066 122.287C132.616 122.287 132.22 122.343 131.879 122.455C131.535 122.568 131.246 122.712 131.008 122.89C130.771 123.063 130.583 123.256 130.444 123.474C130.306 123.686 130.209 123.894 130.158 124.097V131.644H124.421V117.301Z" fill="#EA6001"/>
</svg>
