<svg fill="none" xmlns="http://www.w3.org/2000/svg" viewBox="0 0 18 20"><path fill-rule="evenodd" clip-rule="evenodd" d="m17.9133 14.3147-.7689-6.19463C16.676 5.90964 15.3503 5 14.0865 5H3.93171C2.65022 5 1.28034 5.84597.882639 8.12007L.104905 14.3147C-.531424 18.8629 1.81062 20 4.86853 20h8.28997c3.049 0 5.3204-1.6465 4.7548-5.6853ZM6.097 10.1486c-.48811 0-.88379-.40729-.88379-.90967s.39568-.90964.88379-.90964c.4881 0 .88379.40726.88379.90964s-.39569.90967-.88379.90967Zm4.905-.90967c0 .50238.3957.90967.8838.90967.4881 0 .8838-.40729.8838-.90967s-.3957-.90964-.8838-.90964c-.4881 0-.8838.40726-.8838.90964Z" fill="currentColor"/><path opacity=".4" d="M13.9739 4.77432A.502222.502222 0 0 1 13.9303 5h-1.4371c-.0278-.07206-.0426-.14847-.0435-.22568 0-1.9175-1.5598-3.47194-3.48395-3.47194-1.92411 0-3.48391 1.55444-3.48391 3.47194a.648992.648992 0 0 1 0 .22568H4.00989a.648508.648508 0 0 1 0-.22568C4.12172 2.10591 6.32499 0 9.00494 0 11.6849 0 13.8882 2.10591 14 4.77432h-.0261Z" fill="currentColor"/></svg>
