<svg fill="none" xmlns="http://www.w3.org/2000/svg" viewBox="0 0 21 22"><path clip-rule="evenodd" d="M14.5137 20.5H6.1659c-3.06636 0-5.41876-1.1075-4.75057-5.5652l.77803-6.04117c.4119-2.22426 1.83067-3.07551 3.07552-3.07551H15.4474c1.2631 0 2.5995.91533 3.0755 3.07551l.778 6.04117c.5675 3.9543-1.7208 5.5652-4.7872 5.5652Z" stroke="currentColor" stroke-width="1.5" stroke-linecap="round" stroke-linejoin="round"/><path d="M14.651 5.59842c0-2.38607-1.9343-4.32037-4.3203-4.32037v0c-1.14904-.00486-2.25265.44817-3.06684 1.25892-.81419.81075-1.27188 1.91244-1.27187 3.06145h0M13.2963 10.1018h-.0457M7.46568 10.1018h-.04577" stroke="currentColor" stroke-width="1.5" stroke-linecap="round" stroke-linejoin="round"/></svg>
