<svg fill="none" xmlns="http://www.w3.org/2000/svg" viewBox="0 0 16 18"><path fill-rule="evenodd" clip-rule="evenodd" d="M.5 13.058V6.71387h15v6.39503c0 2.6158-1.6465 4.2241-4.281 4.2241H4.77278C2.16301 17.333.5 15.6914.5 13.058Zm4.13282-2.05c-.3787.0175-.69155-.2833-.70801-.6658 0-.38333.29638-.7.67508-.7175.37047 0 .67508.2925.68332.6667.01646.3841-.27992.7008-.65039.7166Zm3.38365 0c-.37871.0175-.69155-.2833-.70802-.6658 0-.38333.29638-.7.67508-.7175.37048 0 .67509.2925.68332.6667.01647.3841-.27991.7008-.65038.7166Zm3.35893 3.0667c-.3787-.0083-.6833-.325-.6833-.7083-.0082-.3834.2964-.6992.6751-.7075h.0082c.3869 0 .6998.3166.6998.7075 0 .3916-.3129.7083-.6998.7083Zm-4.06695-.7083c.01647.3833.32931.6841.70802.6666.37047-.0158.66685-.3325.65038-.7158-.00823-.375-.31284-.6675-.68332-.6675-.3787.0175-.67508.3333-.67508.7167Zm-3.39187 0c.01646.3833.3293.6841.70801.6666.37047-.0158.66685-.3325.65038-.7158-.00823-.375-.31284-.6675-.68331-.6675-.37871.0175-.67508.3333-.67508.7167Zm6.78372-3.0325c0-.38337.2964-.6917.6751-.70003.3705 0 .6669.29916.6833.66663.0083.3834-.2881.7-.6586.7075-.3787.0084-.6915-.2833-.6998-.6658v-.0083Z" fill="currentColor"/><path opacity=".4" d="M.502808 6.71404c.010702-.48917.051866-1.46.129253-1.7725C1.02723 3.18404 2.36916 2.06737 4.28739 1.9082h7.42591c1.9017.1675 3.2601 1.29167 3.6553 3.03334.0766.30416.1177 1.2825.1284 1.7725H.502808Z" fill="currentColor"/><path d="M4.92072 4.4915c.36224 0 .63392-.27416.63392-.64166V1.309c0-.367496-.27168-.642496-.63392-.642496-.36224 0-.63392.275-.63392.642496v2.54084c0 .3675.27168.64166.63392.64166ZM11.0791 4.4915c.354 0 .6339-.27416.6339-.64166V1.309c0-.367496-.2799-.642496-.6339-.642496-.3622 0-.6339.275-.6339.642496v2.54084c0 .3675.2717.64166.6339.64166Z" fill="currentColor"/></svg>
