<svg fill="none" xmlns="http://www.w3.org/2000/svg" viewBox="0 0 37 30"><path d="M31.7917 24.625c0 1.1603-.4609 2.2731-1.2814 3.0936C29.6899 28.5391 28.5771 29 27.4167 29c-1.1603 0-2.2731-.4609-3.0935-1.2814-.8205-.8205-1.2815-1.9333-1.2815-3.0936 0-1.1603.461-2.2731 1.2815-3.0936.8204-.8205 1.9332-1.2814 3.0935-1.2814 1.1604 0 2.2732.4609 3.0936 1.2814.8205.8205 1.2814 1.9333 1.2814 3.0936Zm-17.5 0c0 1.1603-.4609 2.2731-1.2814 3.0936C12.1899 28.5391 11.0771 29 9.91675 29c-1.16032 0-2.27312-.4609-3.09359-1.2814-.82048-.8205-1.28141-1.9333-1.28141-3.0936 0-1.1603.46093-2.2731 1.28141-3.0936.82047-.8205 1.93327-1.2814 3.09359-1.2814 1.16035 0 2.27315.4609 3.09355 1.2814.8205.8205 1.2814 1.9333 1.2814 3.0936Z" stroke="currentColor" stroke-width="1.5" stroke-linecap="round" stroke-linejoin="round"/><path d="M23.0417 24.625h-8.75m17.5 0h1.3353c.385 0 .5775 0 .7385-.021.5793-.0721 1.1181-.3354 1.5311-.748.4129-.4127.6766-.9512.7491-1.5305.021-.1627.021-.3553.021-.7403V16.75c0-3.0168-1.1984-5.9101-3.3316-8.04334C30.7019 6.57343 27.8086 5.375 24.7917 5.375M1.16675 1H18.6667c2.4745 0 3.7118 0 4.48.77.77.7665.77 2.00375.77 4.48v14.875M1.16675 16.3125V20.25c0 1.6363 0 2.4535.35175 3.0625.23038.399.56173.7304.96075.9607.609.3518 1.42625.3518 3.0625.3518M1.16675 6.25H11.6667M1.16675 11.5h7" stroke="currentColor" stroke-width="1.5" stroke-linecap="round" stroke-linejoin="round"/></svg>
