<svg fill="none" xmlns="http://www.w3.org/2000/svg" viewBox="0 0 24 24"><path d="M2.91304 16h-.81568c-.55228 0-1-.4477-1-1V12.0001M20.1304 16h1.9175l.6971-5.1248c.143-1.05196-.5607-2.03241-1.6032-2.23339l-3.3287-.64177L14.5123 5H3.18187S1.43033 7.25393 1.09736 9.00006c-.219061 1.14874 0 3.00004 0 3.00004M15.3478 16H7.69565m-6.59829-3.9999h1.90421m17.12883 4.3912v.2174c0 1.3207-1.0706 2.3913-2.3913 2.3913v0c-1.3207 0-2.3913-1.0706-2.3913-2.3913v-.2174c0-1.3207 1.0706-2.3913 2.3913-2.3913v0c1.3207 0 2.3913 1.0706 2.3913 2.3913Zm-12.43475 0v.2174c0 1.3207-1.07062 2.3913-2.3913 2.3913v0c-1.32068 0-2.39131-1.0706-2.39131-2.3913v-.2174C2.91304 15.0706 3.98367 14 5.30435 14v0c1.32068 0 2.3913 1.0706 2.3913 2.3913Z" stroke="currentColor" stroke-width="1.7" stroke-linecap="round" stroke-linejoin="round"/></svg>
