<svg fill="none" xmlns="http://www.w3.org/2000/svg" viewBox="0 0 16 16"><path d="M12.9091 5.44453v6.22217c0 .5523-.4477 1-1 1H4.09091c-.55229 0-1-.4477-1-1V5.44453M14 3.66675c0-.55229-.4477-1-1-1H3c-.55228 0-1 .44771-1 1v.77778c0 .55228.44772 1 1 1h10c.5523 0 1-.44772 1-1v-.77778Z" fill="#0A2635"/><path d="M12.9091 5.44453v6.22217c0 .5523-.4477 1-1 1H4.09091c-.55229 0-1-.4477-1-1V5.44453m3.81818 2.22222h2.18182M3 5.44453h10c.5523 0 1-.44772 1-1v-.77778c0-.55229-.4477-1-1-1H3c-.55228 0-1 .44771-1 1v.77778c0 .55228.44772 1 1 1Z" stroke="#F5F5F5" stroke-linecap="round" stroke-linejoin="round"/></svg>
