<svg fill="none" xmlns="http://www.w3.org/2000/svg" viewBox="0 0 20 20"><path clip-rule="evenodd" d="M1 4.5C1 1.87479 1.02811 1 4.5 1S8 1.87479 8 4.5 8.01107 8 4.5 8C.988927 8 1 7.12521 1 4.5ZM12 4.5c0-2.62521.0281-3.5 3.5-3.5s3.5.87479 3.5 3.5.0111 3.5-3.5 3.5S12 7.12521 12 4.5ZM1 15.5c0-2.6252.02811-3.5 3.5-3.5s3.5.8748 3.5 3.5.01107 3.5-3.5 3.5C.988927 19 1 18.1252 1 15.5ZM12 15.5c0-2.6252.0281-3.5 3.5-3.5s3.5.8748 3.5 3.5.0111 3.5-3.5 3.5-3.5-.8748-3.5-3.5Z" stroke="currentColor" stroke-width="1.5" stroke-linecap="round" stroke-linejoin="round"/></svg>
