<svg fill="none" xmlns="http://www.w3.org/2000/svg" viewBox="0 0 36 36"><path opacity=".4" d="M25.1321.5h5.9255C33.5115.5 35.5 2.50524 35.5 4.97994v5.97546c0 2.4747-1.9885 4.48-4.4424 4.48h-5.9255c-2.454 0-4.4424-2.0053-4.4424-4.48V4.97994C20.6897 2.50524 22.6781.5 25.1321.5Z" fill="currentColor"/><path fill-rule="evenodd" clip-rule="evenodd" d="M4.94242.5h5.92548c2.4539 0 4.4424 2.00524 4.4424 4.47994v5.97546c0 2.4747-1.9885 4.48-4.4424 4.48H4.94242C2.48845 15.4354.5 13.4301.5 10.9554V4.97994C.5 2.50524 2.48845.5 4.94242.5Zm0 20.0646h5.92548c2.4539 0 4.4424 2.0053 4.4424 4.48v5.9755c0 2.473-1.9885 4.4799-4.4424 4.4799H4.94242C2.48845 35.5.5 33.4931.5 31.0201v-5.9755c0-2.4747 1.98845-4.48 4.44242-4.48Zm26.11518 0h-5.9255c-2.4539 0-4.4424 2.0053-4.4424 4.48v5.9755c0 2.473 1.9885 4.4799 4.4424 4.4799h5.9255c2.454 0 4.4424-2.0069 4.4424-4.4799v-5.9755c0-2.4747-1.9884-4.48-4.4424-4.48Z" fill="currentColor"/></svg>
