<svg fill="none" xmlns="http://www.w3.org/2000/svg" viewBox="0 0 36 36"><path opacity=".4" d="M35.4998 18c0 9.667-7.8348 17.5-17.5 17.5C8.33451 35.5.499756 27.667.499756 18 .499756 8.3365 8.33451.5 17.9998.5c9.6652 0 17.5 7.8365 17.5 17.5Z" fill="currentColor"/><path d="M24.2538 24.6754c-.2293 0-.4603-.0595-.672-.1838l-6.8705-4.0985c-.3955-.238-.6388-.6667-.6388-1.1287v-8.8323c0-.72447.588-1.31247 1.3125-1.31247s1.3125.588 1.3125 1.31247v8.0868l6.23 3.7152c.6213.3728.826 1.1778.455 1.8008-.2467.4112-.6825.6405-1.1287.6405Z" fill="currentColor"/></svg>
