<svg fill="none" xmlns="http://www.w3.org/2000/svg" viewBox="0 0 16 16"><path d="m9.40994 7.99994 6.29996-6.29c.1883-.1883.2941-.4437.2941-.709999 0-.266301-.1058-.521696-.2941-.71-.1883-.188303-.4437-.294091-.71-.294091s-.5217.105788-.71.294091L7.99994 6.58994l-6.29-6.299999C1.52164.101638 1.26624-.00415.999939-.00415c-.266302 0-.521696.105788-.71.294091-.188304.188304-.294092.443699-.294092.71 0 .266299.105788.521699.294092.709999l6.300001 6.29L.289939 14.2899a1.00028 1.00028 0 0 0-.218891.3255.999445.999445 0 0 0-.076907.3845c0 .1321.026138.2628.076907.3846.050768.1219.125163.2325.218891.3254.092963.0938.203564.1682.325423.2189.121859.0508.252565.0769.384577.0769.132011 0 .262721-.0261.384581-.0769.12186-.0507.23246-.1251.32542-.2189l6.29-6.29996 6.28996 6.29996c.093.0938.2036.1682.3255.2189.1218.0508.2525.0769.3845.0769.1321 0 .2628-.0261.3846-.0769a.996637.996637 0 0 0 .3254-.2189.996637.996637 0 0 0 .2189-.3254c.0508-.1218.0769-.2525.0769-.3846 0-.132-.0261-.2627-.0769-.3845-.0507-.1219-.1251-.2325-.2189-.3255L9.40994 7.99994Z" fill="currentColor"/></svg>
