<svg fill="none" xmlns="http://www.w3.org/2000/svg" viewBox="0 0 12 14"><path d="M8.794.333252H3.20667C1.18.333252 0 1.51992 0 3.55325v6.88665c0 2.0667 1.18 3.2267 3.20667 3.2267H8.794c2.0593 0 3.206-1.16 3.206-3.2267V3.55325C12 1.51992 10.8533.333252 8.794.333252Z" fill="#0A2635"/><path fill-rule="evenodd" clip-rule="evenodd" d="M3.38667 3.43335v.00667c-.28733 0-.52.23333-.52.52 0 .28666.23267.52.52.52h1.99267c.28733 0 .52066-.23334.52066-.52734 0-.286-.23333-.51933-.52066-.51933H3.38667Zm5.22667 4.06H3.38667c-.28733 0-.52-.23333-.52-.52s.23267-.52067.52-.52067h5.22667c.28666 0 .52.234.52.52067s-.23334.52-.52.52Zm0 3.04665H3.38667c-.2.0267-.39333-.0733-.5-.24-.10667-.1733-.10667-.39332 0-.55998.10667-.17334.3-.26667.5-.24667h5.22667c.266.02667.46666.25333.46666.52665 0 .266-.20066.4934-.46666.52Z" fill="#fff"/></svg>
