<svg fill="none" xmlns="http://www.w3.org/2000/svg" viewBox="0 0 24 24"><path opacity=".4" d="M18.4797 6.51221c2.8595 0 5.187 2.40309 5.187 5.35669v5.871c0 2.9464-2.3216 5.3434-5.1753 5.3434H5.52275c-2.86067 0-5.189334-2.4019-5.189334-5.3554v-5.8711c0-2.94632 2.322834-5.34459 5.177664-5.34459H18.4797Z" fill="currentColor"/><path d="m12.6373 16.7101 3.3938-3.4625c.35-.3579.35-.9338-.0023-1.2905-.3523-.3555-.9205-.3543-1.2705.0024l-1.8585 1.896V1.82895c0-.50362-.4025-.912446-.8995-.912446-.4958 0-.8972.408826-.8972.912446V13.8555l-1.85964-1.896c-.35-.3567-.91817-.3579-1.2705-.0024-.17617.1789-.26483.4124-.26483.647 0 .2323.08866.4657.2625.6435l3.39387 3.4625c.1691.1719.3978.269.6358.269.2392 0 .4678-.0971.637-.269Z" fill="currentColor"/></svg>
