<svg fill="none" xmlns="http://www.w3.org/2000/svg" viewBox="0 0 20 20"><path opacity=".4" d="M14.6643 19.9897H5.33488c-1.44653.0899-2.86707-.4116-3.93598-1.3886-.977001-1.0699-1.478489-2.4904-1.38858-3.9359V5.33482C-.07959 3.88932.4209 2.46878 1.3979 1.39889 2.46781.421895 3.88835-.079588 5.33488.01032h9.32942c1.4446-.089908 2.8641.410576 3.933 1.38757.976 1.07089 1.4785 2.49043 1.3926 3.93693v9.33038c.0889 1.4455-.4116 2.866-1.3886 3.9359-1.0699.977-2.4904 1.4785-3.937 1.3886Z" fill="currentColor"/><path d="M15.0545 8.39756 8.50177 14.9829c-.34078.3317-.78867.5171-1.25603.5171H4.95762c-.12657 0-.24341-.0488-.33104-.1366-.08763-.0878-.12658-.2049-.12658-.3317l.05842-2.3122c.00974-.4585.19473-.8878.51604-1.2097l4.64439-4.6537c.0779-.07805.21421-.07805.29215 0l1.6289 1.62244c.1071.10634.2629.17561.4284.17561.3603 0 .6426-.29269.6426-.64391 0-.17561-.0681-.3317-.1752-.44878-.0292-.03902-1.5803-1.58341-1.5803-1.58341-.0974-.09756-.0974-.26342 0-.36098l.6524-.66341c.6036-.60488 1.5773-.60488 2.181 0l1.2657 1.26829c.594.59512.594 1.57073 0 2.17561Z" fill="currentColor"/></svg>
