<svg fill="none" xmlns="http://www.w3.org/2000/svg" viewBox="0 0 20 18"><path fill-rule="evenodd" clip-rule="evenodd" d="M7.80327 12.2526c.62447.4233 1.38555.6793 2.19541.6793 2.14662 0 3.89322-1.7623 3.89322-3.92821 0-.81714-.2537-1.58506-.6733-2.21514l-1.0635 1.07311c.1756.33474.2732.72854.2732 1.14203 0 1.34881-1.0929 2.45141-2.42962 2.45141-.40981 0-.8001-.0984-1.13185-.2756l-1.06356 1.0731Zm8.62553-8.70308c1.4148 1.29955 2.615 3.05197 3.5127 5.15882.078.18706.078.40365 0 .58086-2.0881 4.9029-5.8057 7.8367-9.94282 7.8367h-.00975c-1.88318 0-3.6883-.6203-5.27875-1.7524l-1.89293 1.9099c-.14636.1477-.33175.2166-.51714.2166-.18539 0-.38054-.0689-.51714-.2166-.24394-.2461-.28297-.6399-.08782-.9254l.02927-.0394L16.1556 1.75771c.0195-.01969.039-.03938.0488-.05907v-.00001c.0195-.01969.039-.03938.0488-.05906l.9172-.925439c.2927-.285508.7513-.285508 1.0342 0 .2928.285507.2928.758069 0 1.043579l-1.7758 1.79181ZM6.09836 9.00753c0 .25597.02928.51195.06831.74823L2.55643 13.3984C1.5807 12.2564.731804 10.8781.058544 9.29304c-.078059-.17721-.078059-.3938 0-.58086C2.14662 3.80933 5.86419.885337 9.99156.885337h.00974c1.3953 0 2.7516.334733 4.0005.964813l-3.2589 3.28826c-.2342-.03938-.4879-.06891-.7416-.06891-2.15636 0-3.90294 1.76227-3.90294 3.93803Z" fill="currentColor"/></svg>
