<svg fill="none" xmlns="http://www.w3.org/2000/svg" viewBox="0 0 20 16"><path fill-rule="evenodd" clip-rule="evenodd" d="M6.09756 8c0 2.1333 1.74634 3.8691 3.90244 3.8691 2.1463 0 3.8927-1.7358 3.8927-3.8691 0-2.14303-1.7464-3.87879-3.8927-3.87879-2.1561 0-3.90244 1.73576-3.90244 3.87879Zm9.63904-5.95394c1.7073 1.31879 3.161 3.24849 4.2049 5.66303.078.18424.078.39758 0 .57212C17.8537 13.1103 14.1366 16 10 16h-.00976c-4.12683 0-7.8439-2.8897-9.931703-7.71879-.07805-.17454-.07805-.38788 0-.57212C2.14634 2.88 5.86341 0 9.99024 0H10c2.0683 0 4.0293.717576 5.7366 2.04606Zm-5.7354 8.36634c1.3366 0 2.4292-1.08605 2.4292-2.41453 0-1.33819-1.0926-2.42425-2.4292-2.42425-.1171 0-.23418.0097-.34149.0291-.03903 1.06666-.91708 1.92-2 1.92h-.04878c-.02927.15515-.04878.3103-.04878.47515 0 1.32848 1.09268 2.41453 2.43905 2.41453Z" fill="currentColor"/></svg>
