<svg fill="none" xmlns="http://www.w3.org/2000/svg" viewBox="0 0 20 18"><path opacity=".4" d="M8.08329 12.958H1.50777C.675552 12.958 0 13.6217 0 14.4393c0 .8166.675552 1.4814 1.50777 1.4814h6.57552c.83222 0 1.50777-.6648 1.50777-1.4814 0-.8176-.67555-1.4813-1.50777-1.4813ZM20 3.37867c0-.81653-.6756-1.48023-1.5067-1.48023h-6.5755c-.8322 0-1.5078.6637-1.5078 1.48023 0 .81763.6756 1.48133 1.5078 1.48133h6.5755C19.3244 4.86 20 4.1963 20 3.37867Z" fill="currentColor"/><path d="M6.87774 3.37856c0 1.86667-1.53888 3.37965-3.43887 3.37965C1.53999 6.75821 0 5.24523 0 3.37856 0 1.51298 1.53999 0 3.43887 0c1.89999 0 3.43887 1.51298 3.43887 3.37856ZM20.0001 14.3992c0 1.8656-1.5389 3.3785-3.4389 3.3785-1.8989 0-3.4389-1.5129-3.4389-3.3785 0-1.8667 1.54-3.3797 3.4389-3.3797 1.9 0 3.4389 1.513 3.4389 3.3797Z" fill="currentColor"/></svg>
