<svg fill="none" xmlns="http://www.w3.org/2000/svg" viewBox="0 0 20 20"><path d="M7.14373 18.7821v-3.0669c-.00001-.7771.63194-1.4085 1.41471-1.4134h2.87416c.7863 0 1.4237.6328 1.4237 1.4134v3.058c-.0001.6741.5477 1.2219 1.2266 1.2268h1.9609c.9158.0023 1.795-.3572 2.4434-.9993.6484-.6421 1.0128-1.5139 1.0128-2.4232V7.86585c0-.73446-.3279-1.43114-.8954-1.90235L11.943.674268c-1.1645-.925145-2.82763-.89526-3.95761.071116L1.46701 5.9635C.872741 6.42082.517552 7.11956.5 7.86585v8.70275C.5 18.4637 2.04738 20 3.95617 20h1.91612c.32688.0023.6412-.1249.87318-.3536.23199-.2286.36246-.5397.36245-.8643h.03581Z" fill="currentColor"/></svg>
