<svg fill="none" xmlns="http://www.w3.org/2000/svg" viewBox="0 0 22 22"><path d="M8.15722 19.7714v-3.0667c-.00002-.7801.6359-1.4139 1.42379-1.4191h2.88609c.7916 0 1.4334.6353 1.4334 1.4191v3.0762c-.0002.6623.5338 1.2036 1.2025 1.2191h1.9241c1.918 0 3.4729-1.5393 3.4729-3.4382v0-8.72396c-.0102-.74701-.3645-1.44849-.962-1.90481L12.9577 1.6853c-1.1528-.913734-2.7915-.913734-3.94428 0L2.46203 6.94256c-.59977.45446-.95464 1.15711-.96203 1.9048v8.71444C1.5 19.4607 3.05488 21 4.97291 21h1.92405c.68539 0 1.24101-.5501 1.24101-1.2286v0" stroke="currentColor" stroke-width="1.5" stroke-linecap="round" stroke-linejoin="round"/></svg>
