<svg width="64" height="65" viewBox="0 0 64 65" fill="none" xmlns="http://www.w3.org/2000/svg">
<path fill-rule="evenodd" clip-rule="evenodd" d="M43.558 7.83398H20.4407C12.3847 7.83398 7.33398 13.538 7.33398 21.61V43.3913C7.33398 51.4633 12.3607 57.1673 20.4407 57.1673H43.5553C51.638 57.1673 56.6673 51.4633 56.6673 43.3913V21.61C56.6673 13.538 51.638 7.83398 43.558 7.83398Z" stroke="#EA6001" stroke-width="4" stroke-linecap="round" stroke-linejoin="round"/>
<path fill-rule="evenodd" clip-rule="evenodd" d="M28.5043 32.5002C28.5043 35.2282 26.2936 37.4389 23.5656 37.4389C20.8376 37.4389 18.627 35.2282 18.627 32.5002C18.627 29.7722 20.8376 27.5615 23.5656 27.5615H23.5736C26.2963 27.5642 28.5043 29.7749 28.5043 32.5002Z" stroke="#EA6001" stroke-width="4" stroke-linecap="round" stroke-linejoin="round"/>
<path d="M28.5117 32.501H45.3597V37.4396" stroke="#EA6001" stroke-width="4" stroke-linecap="round" stroke-linejoin="round"/>
<path d="M37.8177 37.4396V32.501" stroke="#EA6001" stroke-width="4" stroke-linecap="round" stroke-linejoin="round"/>
</svg>
