<svg fill="none" xmlns="http://www.w3.org/2000/svg" viewBox="0 0 12 18"><path fill-rule="evenodd" clip-rule="evenodd" d="M3.10971 1.44715C4.93042.389233 7.16838.407723 8.97201 1.49558 10.7579 2.6056 11.8433 4.58665 11.8332 6.71771c-.0416 2.11707-1.2054 4.10709-2.66029 5.64549-.83969.892-1.77904 1.6807-2.79885 2.35-.10503.0607-.22008.1014-.33947.12-.1149-.0049-.2268-.0389-.32561-.0988-1.55694-1.0058-2.92285-2.2895-4.03202-3.7896C.748844 9.69264.22155 8.17984.166688 6.61185.165483 4.47671 1.28899 2.50506 3.10971 1.44715Zm1.05211 6.04834c.30627.75504 1.02919 1.24755 1.8312 1.24755.52542.00378 1.03049-.20668 1.40268-.58447.37218-.3778.58056-.89153.57869-1.42675.00281-.81695-.47816-1.55506-1.21832-1.86967-.74016-.31462-1.59351-.14369-2.16162.43298-.5681.57666-.73889 1.44531-.43263 2.20036Z" fill="currentColor"/><ellipse opacity=".4" cx="6.00004" cy="16.4998" rx="4.16667" ry=".833334" fill="currentColor"/></svg>
