<svg fill="none" xmlns="http://www.w3.org/2000/svg" viewBox="0 0 17 21"><path fill-rule="evenodd" clip-rule="evenodd" d="M14.0227 5.89601v1.53334C15.7451 7.96696 17 9.52614 17 11.3884v4.9369c0 2.3055-1.9114 4.1747-4.2678 4.1747H4.2688C1.91136 20.5 0 18.6308 0 16.3253v-4.9369c0-1.86226 1.25595-3.42144 2.97729-3.95905V5.89601C2.98745 2.91479 5.45667.5 8.48476.5c3.06874 0 5.53794 2.41479 5.53794 5.39601ZM8.50508 2.23904c2.06272 0 3.73942 1.63967 3.73942 3.65697V7.2137H4.75553V5.87613c.01016-2.00735 1.68679-3.63709 3.74955-3.63709Zm.88404 12.71586c0 .487-.39629.8745-.8942.8745-.48775 0-.88404-.3875-.88404-.8745v-2.2061c0-.477.39629-.8645.88404-.8645.49791 0 .8942.3875.8942.8645v2.2061Z" fill="currentColor"/></svg>
