<svg fill="none" xmlns="http://www.w3.org/2000/svg" viewBox="0 0 24 25"><path fill-rule="evenodd" clip-rule="evenodd" d="M16.939 3.5c1.341 0 2.631.53 3.58 1.481C21.469 5.93 22 7.21 22 8.55v7.9c0 2.79-2.27 5.05-5.061 5.05H7.06C4.269 21.5 2 19.24 2 16.45v-7.9C2 5.76 4.259 3.5 7.06 3.5h9.879Zm1.591 6.54.08-.08c.239-.29.239-.71-.011-1-.139-.149-.33-.24-.529-.26-.21-.011-.41.06-.561.2L13 12.5c-.58.481-1.411.481-2 0L6.5 8.9c-.311-.23-.741-.2-1 .07-.27.27-.3.7-.071 1l.131.13 4.55 3.55c.56.44 1.239.68 1.95.68.709 0 1.4-.24 1.959-.68l4.511-3.61Z" fill="currentColor"/></svg>
