<svg fill="none" xmlns="http://www.w3.org/2000/svg" viewBox="0 0 20 24"><path fill-rule="evenodd" clip-rule="evenodd" d="M17.8907 8.1556c0 1.50711.3905 2.3954 1.2499 3.4191.6513.7542.8594 1.7223.8594 2.7725 0 1.0491-.3379 2.045-1.0149 2.8535-.8863.9693-2.1362 1.5881-3.4119 1.6957-1.8486.1607-3.6983.2961-5.5726.2961-1.87549 0-3.72407-.081-5.57265-.2961-1.27682-.1076-2.52675-.7264-3.41187-1.6957C.339082 16.3922 0 15.3963 0 14.3472c0-1.0502.209296-2.0183.859398-2.7725C1.74569 10.551 2.11049 9.66271 2.11049 8.1556v-.51124c0-2.01835.49343-3.33814 1.5095-4.63013C5.13066 1.13004 7.55218 0 9.94797 0h.10523c2.4472 0 4.9471 1.18442 6.432 3.1496.9635 1.2654 1.4055 2.52959 1.4055 4.49476v.51124ZM6.55733 21.6731c0-.6043.5437-.8811 1.04648-.9996.58813-.1269 4.17189-.1269 4.75999 0 .5028.1185 1.0465.3953 1.0465.9996-.0292.5752-.3601 1.0853-.8173 1.4092-.5928.4713-1.2885.7698-2.0158.8774-.4022.0532-.79742.0544-1.18561 0-.72844-.1076-1.42415-.4061-2.01579-.8786-.45834-.3227-.78924-.8328-.81847-1.408Z" fill="currentColor"/></svg>
