<svg fill="none" xmlns="http://www.w3.org/2000/svg" viewBox="0 0 20 20"><path opacity=".4" d="M14.6667 0H5.33333C1.92889 0 0 1.92889 0 5.33333v9.33337C0 18.0622 1.92 20 5.33333 20h9.33337C18.0711 20 20 18.0622 20 14.6667V5.33333C20 1.92889 18.0711 0 14.6667 0Z" fill="currentColor"/><path d="M13.3205 10.7083h-2.571v2.5487c0 .4103-.3356.743-.7495.743-.41395 0-.74952-.3327-.74952-.743v-2.5487H6.67955C6.29342 10.6687 6 10.3461 6 9.96132c0-.38482.29342-.70738.67955-.74701h2.56287V6.67365C9.28241 6.29088 9.60778 6 9.99597 6c.38823 0 .71353.29088.75353.67365v2.54066h2.571c.3861.03963.6795.36219.6795.74701 0 .38478-.2934.70738-.6795.74698Z" fill="currentColor"/></svg>
