<svg fill="none" xmlns="http://www.w3.org/2000/svg" viewBox="0 0 28 28"><path fill-rule="evenodd" clip-rule="evenodd" d="M0 12.1379C0 5.43432 5.37648 0 12.0087 0c3.1849 0 6.2394 1.27881 8.4914 3.55511 2.2521 2.27629 3.5173 5.36362 3.5173 8.58279 0 6.7036-5.3765 12.1379-12.0087 12.1379C5.37648 24.2758 0 18.8415 0 12.1379Zm23.8187 9.7781 3.5765 2.887h.0621c.7236.7314.7236 1.9172 0 2.6485-.7236.7314-1.8967.7314-2.6203 0l-2.968-3.4016c-.2806-.2826-.4383-.6665-.4383-1.0669s.1577-.7843.4383-1.067c.5411-.5374 1.4085-.5374 1.9497 0Z" fill="currentColor"/></svg>
