<svg fill="none" xmlns="http://www.w3.org/2000/svg" viewBox="0 0 20 22"><path clip-rule="evenodd" d="m18.8066 6.62361-.6224-1.08009c-.5266-.91392-1.6935-1.2292-2.6087-.7048v0c-.4356.25662-.9554.32943-1.4448.20237-.4894-.12707-.9081-.44357-1.1639-.87972-.1645-.27722-.2529-.59298-.2563-.91533v0c.0149-.51682-.1801-1.01764-.5405-1.38837-.3604-.37073-.8555-.57981-1.3725-.57959H9.54348c-.50654-.00001-.99219.20183-1.3495.56087-.35732.35903-.55683.84564-.55439 1.35217v0c-.01502 1.04581-.86713 1.88569-1.91305 1.88558a1.83062 1.83062 0 0 1-.91533-.25629v0c-.91517-.5244-2.08212-.20912-2.60869.70481l-.6682 1.09839c-.52593.91278-.21494 2.079.69566 2.6087v0c.5919.34173.95653.97329.95653 1.65679 0 .6834-.36463 1.315-.95653 1.6567v0c-.90945.5261-1.22078 1.6895-.69566 2.5996v0l.63158 1.0892c.24672.4452.66068.7737 1.15027.9128.48959.1392 1.01445.0775 1.45843-.1714v0c.43646-.2547.95657-.3244 1.44472-.1938.48815.1306.90389.4508 1.15482.8895.16453.2772.25295.5929.25629.9153v0c0 1.0565.8565 1.913 1.91305 1.913h1.25402c1.053.0001 1.908-.8509 1.913-1.9038v0c-.0024-.5082.1983-.9962.5576-1.3555.3593-.3593.8474-.56 1.3555-.5576.3216.0086.636.0967.9153.2563v0c.9128.5259 2.079.215 2.6087-.6956v0l.659-1.0984c.2551-.4379.3251-.9594.1946-1.449-.1306-.4897-.451-.907-.8902-1.1597v0c-.4393-.2527-.7596-.6701-.8902-1.1598-.1306-.4896-.0606-1.0111.1945-1.44894.1659-.28962.4061-.52976.6957-.69565v0c.9051-.52942 1.2154-1.68882.6956-2.59954v0-.00916Z" stroke="currentColor" stroke-width="1.5" stroke-linecap="round" stroke-linejoin="round"/><circle cx="10.1751" cy="10.8891" r="2.63616" stroke="currentColor" stroke-width="1.5" stroke-linecap="round" stroke-linejoin="round"/></svg>
