<svg fill="none" xmlns="http://www.w3.org/2000/svg" viewBox="0 0 21 21"><path opacity=".4" fill-rule="evenodd" clip-rule="evenodd" d="M3.91052 18.5884c0-.84.68-1.52 1.52-1.52.83 0 1.51.68 1.51 1.52 0 .83-.68 1.51-1.51 1.51-.84 0-1.52-.68-1.52-1.51Zm11.24998 0c0-.84.68-1.52 1.52-1.52.83 0 1.51.68 1.51 1.52 0 .83-.68 1.51-1.51 1.51-.84 0-1.52-.68-1.52-1.51Z" fill="currentColor"/><path fill-rule="evenodd" clip-rule="evenodd" d="M18.1907 4.34884c.61 0 1.01.21 1.41.67.4.46.47 1.12.38 1.719l-.95 6.55996c-.18 1.261-1.26 2.19-2.53 2.19H5.59074c-1.33 0-2.43-1.02-2.54-2.339l-.92-10.90096-1.509998-.26c-.4-.07-.68-.46-.61-.86.07-.409998.46-.679998.87-.619998l2.384998.36c.34.061.59.339998.62.679998l.19 2.24c.03.321.29.561.61.561H18.1907Zm-6.06 5.199h2.77c.42 0 .75-.34.75-.75 0-.42-.33-.75-.75-.75h-2.77c-.42 0-.75.33-.75.75 0 .41.33.75.75.75Z" fill="currentColor"/></svg>
