<svg fill="none" xmlns="http://www.w3.org/2000/svg" viewBox="0 0 20 21"><path d="m.750099 1.24988 2.080001.36.963 11.47302c.077.937.86 1.656 1.8 1.653h10.909c.897.002 1.658-.658 1.785-1.546l.949-6.55802c.106-.733-.403-1.413-1.135-1.519-.064-.009-14.937-.014-14.937-.014M12.1251 8.7948h2.773" stroke="currentColor" stroke-width="1.5" stroke-linecap="round" stroke-linejoin="round"/><path fill-rule="evenodd" clip-rule="evenodd" d="M5.1544 18.2025c.301 0 .544.244.544.544 0 .301-.243.545-.544.545-.301 0-.544-.244-.544-.545 0-.3.243-.544.544-.544ZM16.4347 18.2025c.301 0 .545.244.545.544 0 .301-.244.545-.545.545-.301 0-.544-.244-.544-.545 0-.3.243-.544.544-.544Z" fill="currentColor" stroke="currentColor" stroke-width="1.5" stroke-linecap="round" stroke-linejoin="round"/></svg>
