<svg fill="none" xmlns="http://www.w3.org/2000/svg" viewBox="0 0 22 18"><path d="M16.8877 7.89673c1.395-.196 2.469-1.392 2.472-2.841 0-1.428-1.041-2.612-2.406-2.836M18.7285 11.2502c1.351.202 2.294.675 2.294 1.65 0 .671-.444 1.107-1.162 1.381" stroke="currentColor" stroke-width="1.5" stroke-linecap="round" stroke-linejoin="round"/><path clip-rule="evenodd" d="M10.8867 11.6638c-3.214 0-5.959.487-5.959 2.432 0 1.944 2.728 2.445 5.959 2.445 3.214 0 5.958-.482 5.958-2.428s-2.727-2.449-5.958-2.449ZM10.8867 8.88788c2.109 0 3.819-1.709 3.819-3.819 0-2.109-1.71-3.819-3.819-3.819s-3.819 1.71-3.819 3.819c-.008 2.102 1.689 3.812 3.791 3.819h.028Z" stroke="currentColor" stroke-width="1.5" stroke-linecap="round" stroke-linejoin="round"/><path d="M4.8848 7.89673c-1.396-.196-2.469-1.392-2.472-2.841 0-1.428 1.041-2.612 2.406-2.836M3.0439 11.2502c-1.351.202-2.293999.675-2.293999 1.65 0 .671.443999 1.107 1.161999 1.381" stroke="currentColor" stroke-width="1.5" stroke-linecap="round" stroke-linejoin="round"/></svg>
