<svg fill="none" xmlns="http://www.w3.org/2000/svg" viewBox="0 0 14 18"><path d="M1.4 3.1275V12.75c-.00014.9521.33773 1.8686.94506 2.5636.60733.695 1.43865 1.1164 2.32534 1.1789L4.9 16.5h6.1796c-.1447.4386-.4128.8184-.7673 1.087-.35456.2687-.77808.4129-1.2123.413H4.2c-1.11391 0-2.1822-.4741-2.96985-1.318C.442499 15.8381 0 14.6935 0 13.5V5.25C-.000227 4.78451.1343 4.3304.38504 3.95026.63578 3.57012.990391 3.28266 1.4 3.1275ZM11.9 0c.557 0 1.0911.237053 1.4849.65901.3939.42196.6151.99425.6151 1.59099v10.5c0 .5967-.2212 1.169-.6151 1.591-.3938.4219-.9279.659-1.4849.659h-7c-.55695 0-1.0911-.2371-1.48492-.659C3.02125 13.919 2.8 13.3467 2.8 12.75V2.25c0-.59674.22125-1.16903.61508-1.59099C3.8089.237053 4.34305 0 4.9 0h7Zm0 1.5h-7c-.18565 0-.3637.07902-.49497.21967C4.27375 1.86032 4.2 2.05109 4.2 2.25v10.5c0 .1989.07375.3897.20503.5303.13127.1407.30932.2197.49497.2197h7c.1857 0 .3637-.079.495-.2197.1313-.1406.205-.3314.205-.5303V2.25c0-.19891-.0737-.38968-.205-.53033C12.2637 1.57902 12.0857 1.5 11.9 1.5Z" fill="currentColor"/></svg>
