<svg fill="none" xmlns="http://www.w3.org/2000/svg" viewBox="0 0 20 18"><path fill-rule="evenodd" clip-rule="evenodd" d="M19.9964 5.37513h-4.2346c-1.9707.00346-3.5671 1.56001-3.5707 3.48144-.0027 1.92573 1.5956 3.48923 3.5707 3.49183H20v.3059C20 16.0136 17.9636 18 14.5173 18H5.48356C2.03644 18 0 16.0136 0 12.6543V5.33786C0 1.97862 2.03644 0 5.48356 0h9.03024c3.4462 0 5.4826 1.97862 5.4826 5.33786v.03727Zm-15.25684-.0078h5.65064c.4222-.00174.7636-.33714.7618-.74968-.0018-.41167-.3467-.74447-.7689-.74274H4.73956c-.41956.00173-.76.33367-.76178.74361-.00178.41167.33955.74707.76178.74881Z" fill="currentColor"/><path opacity=".4" d="M14.0374 9.29657c.2091.95123 1.0431 1.62043 1.9952 1.60303h3.2499c.3962 0 .7175-.3281.7175-.7336V7.63439c-.0009-.40466-.3213-.73362-.7175-.73449h-3.3264c-1.083.00348-1.9578.90245-1.9561 2.01028 0 .12967.0128.25933.0374.38639Z" fill="currentColor"/><circle cx="16" cy="8.8999" r="1" fill="currentColor"/></svg>
